<?xml version="1.0" standalone="no"?>
<!DOCTYPE svg PUBLIC "-//W3C//DTD SVG 20010904//EN"
 "http://www.w3.org/TR/2001/REC-SVG-20010904/DTD/svg10.dtd">
<svg version="1.0" xmlns="http://www.w3.org/2000/svg"
 width="720.000000pt" height="686.000000pt" viewBox="0 0 720.000000 686.000000"
 preserveAspectRatio="xMidYMid meet">

<g transform="translate(0.000000,686.000000) scale(0.100000,-0.100000)"
fill="#000000" stroke="none">
<path d="M3393 6695 c-255 -30 -523 -104 -705 -196 -71 -36 -168 -102 -168
-115 0 -7 16 -22 35 -34 42 -26 168 -160 240 -255 101 -135 147 -225 259 -510
30 -77 105 -233 166 -348 61 -114 114 -215 117 -225 4 -9 -25 11 -64 45 -115
102 -189 223 -308 503 -142 334 -224 468 -375 613 -111 107 -164 137 -256 145
-118 9 -197 -45 -246 -167 -19 -48 -22 -75 -22 -186 0 -140 4 -162 65 -325 40
-110 73 -234 59 -225 -4 3 -37 50 -71 105 -35 55 -69 100 -76 100 -18 0 -72
-122 -89 -203 -12 -55 -15 -112 -11 -242 5 -199 19 -279 47 -270 10 3 71 1
136 -4 115 -9 244 -43 283 -75 12 -9 13 -8 8 4 -132 309 -138 452 -32 790 25
80 45 150 45 156 0 13 -111 87 -158 106 -15 6 -58 19 -97 28 l-70 18 39 7 c21
4 72 5 114 2 129 -10 301 -107 444 -250 141 -142 216 -298 302 -624 83 -311
165 -433 291 -433 68 0 96 21 253 187 89 95 155 154 237 212 62 45 116 81 120
81 3 0 -35 -39 -85 -87 -97 -92 -200 -222 -250 -316 -27 -50 -29 -58 -15 -63
32 -12 119 6 189 39 114 54 220 143 494 411 142 138 289 277 327 308 140 112
252 168 337 168 l40 0 -29 -23 c-15 -13 -62 -46 -103 -74 -41 -28 -113 -83
-160 -123 -95 -82 -98 -89 -100 -220 -1 -41 -5 -99 -9 -127 -4 -29 -5 -53 -2
-53 3 0 57 41 119 91 132 105 149 133 185 299 18 80 25 99 37 94 38 -17 54 -8
87 46 81 133 100 255 53 339 -37 65 -68 84 -137 84 -189 -2 -503 -224 -938
-663 -156 -157 -171 -169 -447 -362 -58 -40 -24 -7 95 93 155 130 174 151 294
306 200 261 573 588 770 677 40 17 41 20 36 55 -17 112 -92 238 -209 350 -190
180 -449 298 -741 336 -133 17 -197 17 -350 0z"/>
<path d="M4420 5739 l-35 -30 38 26 c33 24 43 35 34 35 -1 0 -18 -14 -37 -31z"/>
<path d="M4349 5683 c-13 -16 -12 -17 4 -4 16 13 21 21 13 21 -2 0 -10 -8 -17
-17z"/>
<path d="M4490 5275 c-11 -13 -10 -14 4 -9 9 3 16 10 16 15 0 13 -6 11 -20 -6z"/>
<path d="M4502 5235 c0 -16 2 -22 5 -12 2 9 2 23 0 30 -3 6 -5 -1 -5 -18z"/>
<path d="M4493 5110 c0 -30 2 -43 4 -27 2 15 2 39 0 55 -2 15 -4 2 -4 -28z"/>
<path d="M4930 5066 c-121 -34 -242 -126 -393 -298 -79 -89 -170 -154 -283
-199 -109 -44 -248 -52 -352 -20 -86 26 -95 26 -167 1 -59 -20 -175 -26 -240
-11 -23 6 -42 0 -82 -22 -77 -42 -154 -47 -224 -14 -30 14 -79 46 -109 71 -35
29 -61 44 -70 40 -76 -32 -140 -45 -195 -40 -96 10 -228 49 -396 120 -212 88
-256 100 -344 93 -98 -8 -176 -31 -273 -79 -168 -85 -335 -248 -414 -406 -36
-72 -42 -92 -42 -150 -1 -81 19 -120 77 -153 87 -49 238 -34 428 43 72 29 85
38 102 71 19 36 19 40 2 82 -19 51 -52 81 -105 95 -66 18 -112 3 -200 -66 -58
-44 -156 -91 -167 -80 -10 9 42 112 85 169 69 90 190 149 341 167 76 9 317
-11 350 -30 10 -5 -5 -13 -45 -24 -32 -9 -75 -23 -94 -30 l-34 -13 30 -16 c44
-23 92 -81 99 -121 14 -72 -20 -148 -141 -316 -234 -323 -345 -546 -374 -747
-10 -76 2 -169 31 -230 45 -94 207 -206 345 -239 225 -53 711 70 1694 429 467
170 478 173 665 202 139 22 227 28 480 35 328 9 401 18 498 63 95 43 157 117
157 184 0 45 -45 129 -100 188 -59 62 -121 100 -345 213 -320 162 -461 263
-515 369 -20 38 -25 63 -25 118 1 81 11 105 83 191 27 32 57 74 66 91 26 51
57 67 122 60 96 -10 145 -56 159 -151 l6 -38 25 33 c14 19 42 68 62 108 31 62
37 86 37 137 0 70 -16 97 -72 120 -39 17 -82 17 -143 0z m-1721 -661 c16 -8
34 -28 41 -45 39 -95 -61 -214 -203 -239 -124 -22 -162 8 -138 112 29 132 195
227 300 172z m632 5 c20 -6 52 -20 70 -33 37 -24 81 -100 72 -123 -8 -22 -82
-62 -138 -74 -127 -28 -255 43 -255 142 0 69 141 119 251 88z"/>
<path d="M4481 4974 c0 -11 3 -14 6 -6 3 7 2 16 -1 19 -3 4 -6 -2 -5 -13z"/>
<path d="M4179 4963 c-13 -16 -12 -17 4 -4 9 7 17 15 17 17 0 8 -8 3 -21 -13z"/>
<path d="M4086 4873 c-6 -14 -5 -15 5 -6 7 7 10 15 7 18 -3 3 -9 -2 -12 -12z"/>
<path d="M4015 4810 c-3 -5 -1 -10 4 -10 6 0 11 5 11 10 0 6 -2 10 -4 10 -3 0
-8 -4 -11 -10z"/>
<path d="M4865 4698 c-34 -20 -98 -77 -117 -106 -10 -15 -18 -40 -18 -55 0
-35 36 -107 54 -107 20 0 176 158 176 178 0 9 -9 36 -20 60 -20 44 -38 51 -75
30z"/>
<path d="M3948 4633 c7 -3 16 -2 19 1 4 3 -2 6 -13 5 -11 0 -14 -3 -6 -6z"/>
<path d="M4023 4623 c15 -2 39 -2 55 0 15 2 2 4 -28 4 -30 0 -43 -2 -27 -4z"/>
<path d="M4890 4405 c-28 -25 -62 -52 -75 -61 -14 -9 -25 -19 -25 -23 0 -16
134 -95 349 -206 130 -66 262 -138 293 -159 75 -49 150 -132 184 -203 114
-233 -73 -418 -458 -453 -57 -5 -194 -9 -305 -10 -158 0 -240 -5 -380 -25
-188 -26 -258 -46 -578 -165 -877 -327 -1419 -480 -1701 -481 -83 0 -115 4
-180 26 -293 98 -434 297 -395 557 32 210 135 424 356 733 122 171 155 230
155 278 0 48 -56 94 -137 112 l-32 6 29 -31 c64 -69 77 -174 29 -246 -51 -76
-300 -164 -465 -164 -110 0 -179 25 -232 85 -21 24 -44 61 -50 83 -26 87 -6
203 54 310 20 35 33 66 31 69 -11 10 -107 -29 -149 -61 -24 -19 -56 -51 -70
-72 -62 -89 -58 31 -58 -1783 0 -1437 2 -1664 15 -1707 22 -74 79 -141 155
-183 l65 -36 370 -7 c204 -5 1146 -7 2095 -6 l1725 3 50 25 c64 31 134 101
165 165 l25 50 0 1680 0 1680 -29 63 c-35 75 -113 152 -183 178 -41 15 -87 18
-320 21 l-272 3 -51 -45z m-651 -1861 c85 -25 151 -95 186 -199 22 -64 36
-280 24 -379 -12 -110 -28 -152 -76 -206 -69 -76 -87 -80 -420 -80 -304 0
-344 5 -408 49 -46 31 -103 119 -112 174 -7 46 -23 49 -23 5 0 -58 -44 -134
-95 -167 -70 -44 -136 -51 -503 -51 l-332 0 0 110 0 110 340 0 c327 0 341 1
360 20 11 11 20 25 20 30 0 6 -9 19 -20 30 -19 19 -33 20 -222 20 -232 0 -312
10 -381 48 -86 47 -135 146 -123 250 13 110 62 177 155 214 53 21 73 22 409
26 l352 4 0 -111 0 -110 -312 -3 c-172 -2 -321 -7 -330 -12 -32 -15 -32 -57 0
-72 9 -5 123 -11 252 -14 208 -6 240 -9 281 -27 56 -26 106 -75 130 -128 l18
-40 0 110 c2 223 60 345 187 395 44 17 77 19 320 20 217 0 281 -3 323 -16z
m-1984 -17 c79 -35 114 -68 146 -133 30 -60 31 -68 27 -156 -5 -108 -26 -158
-85 -207 -71 -58 -103 -64 -370 -69 l-243 -4 0 -134 0 -134 -144 0 c-116 0
-145 3 -149 14 -3 8 -6 160 -7 338 0 178 -3 365 -7 416 l-6 93 399 -3 c358 -3
403 -5 439 -21z m3056 0 c112 -43 171 -134 172 -267 2 -138 -43 -218 -150
-268 -57 -27 -61 -27 -305 -30 l-248 -4 0 -134 0 -134 -143 0 -144 0 -6 272
c-4 149 -7 343 -7 430 l0 159 393 -3 c346 -3 397 -6 438 -21z m-3741 -950 c29
-15 45 -54 36 -90 -7 -28 -27 -43 -69 -51 -41 -7 -47 -14 -47 -52 0 -31 -2
-34 -30 -34 l-30 0 0 120 0 120 58 0 c31 0 68 -6 82 -13z m206 -34 c9 -27 28
-75 41 -107 30 -77 29 -86 -7 -86 -23 0 -31 5 -36 25 -6 22 -11 25 -55 25 -44
0 -49 -3 -55 -25 -5 -19 -13 -25 -35 -25 -16 0 -29 3 -29 7 0 3 19 57 42 120
l43 113 37 0 c34 0 37 -3 54 -47z m234 22 c0 -21 -5 -25 -30 -25 l-30 0 0 -95
0 -95 -30 0 -30 0 0 95 c0 94 0 95 -24 95 -28 0 -40 14 -32 35 4 12 25 15 91
15 84 0 85 0 85 -25z m199 11 c33 -18 51 -54 51 -107 0 -77 -39 -118 -112
-119 -66 0 -108 37 -115 101 -6 54 16 111 50 127 32 15 94 14 126 -2z m241 -9
c0 -21 -4 -24 -42 -23 -32 1 -43 -3 -46 -15 -2 -12 10 -22 43 -35 51 -19 69
-48 59 -90 -10 -38 -42 -54 -106 -54 -56 0 -58 1 -58 26 0 24 2 26 34 20 77
-15 88 22 17 58 -68 35 -79 69 -36 111 20 21 34 25 80 25 51 0 55 -2 55 -23z
m310 -1 c0 -23 -3 -24 -35 -19 -66 11 -82 -36 -17 -52 62 -15 83 -77 40 -122
-18 -19 -32 -23 -79 -23 -61 0 -73 7 -63 35 5 13 14 15 41 10 34 -6 63 6 63
27 0 5 -17 16 -37 25 -53 21 -73 42 -73 74 0 46 34 69 102 69 55 0 58 -1 58
-24z m208 2 c-3 -20 -10 -23 -50 -26 -39 -3 -48 -7 -48 -22 0 -15 9 -19 48
-22 39 -3 47 -6 47 -23 0 -17 -8 -20 -47 -23 -43 -3 -48 -6 -48 -27 0 -22 5
-24 53 -27 44 -3 52 -6 52 -23 0 -18 -8 -20 -82 -23 l-83 -3 0 121 0 120 81 0
c78 0 80 -1 77 -22z m189 11 c15 -5 31 -16 35 -22 14 -22 8 -56 -12 -70 -19
-13 -19 -14 -1 -53 11 -21 22 -49 26 -61 6 -20 3 -23 -25 -23 -24 0 -32 6 -40
28 -15 42 -26 57 -43 60 -12 3 -17 -7 -19 -40 -3 -40 -5 -43 -33 -43 l-30 0
-3 104 c-1 58 0 111 2 118 7 16 102 18 143 2z m143 -109 l0 -120 -30 0 -30 0
0 120 0 120 30 0 30 0 0 -120z m205 95 c0 -17 -8 -20 -47 -23 -40 -3 -48 -6
-48 -23 0 -16 7 -19 45 -19 41 0 45 -2 45 -25 0 -23 -4 -25 -45 -25 -41 0 -45
-2 -45 -25 0 -23 3 -25 50 -25 47 0 50 -2 50 -25 0 -25 -1 -25 -80 -25 l-80 0
0 120 0 121 78 -3 c69 -3 77 -5 77 -23z m199 16 c14 -22 -6 -38 -47 -37 -61 1
-62 -25 -2 -48 69 -27 86 -76 40 -122 -22 -22 -32 -25 -83 -22 -52 3 -57 5
-60 27 -4 22 -1 24 33 18 45 -7 65 0 65 23 0 11 -12 22 -32 29 -47 17 -68 40
-68 77 0 44 30 64 97 64 28 0 54 -4 57 -9z m325 -5 c33 -18 51 -54 51 -107 0
-77 -39 -118 -112 -119 -39 0 -54 6 -80 29 -31 27 -33 34 -33 91 0 57 2 64 33
91 37 33 94 39 141 15z m241 -11 c0 -23 -4 -25 -46 -25 -41 0 -45 -2 -42 -22
2 -19 10 -24 46 -26 34 -3 42 -7 42 -23 0 -16 -7 -19 -45 -19 l-45 0 0 -50 c0
-49 -1 -50 -30 -50 l-30 0 0 120 0 120 75 0 c73 0 75 -1 75 -25z m299 1 c14
-13 21 -31 21 -57 0 -43 -20 -62 -77 -74 -28 -6 -32 -11 -35 -43 -3 -34 -6
-37 -33 -37 l-30 0 -3 104 c-1 58 0 111 3 119 8 22 127 12 154 -12z m229 8
c29 -20 52 -66 52 -104 0 -38 -23 -84 -52 -104 -13 -9 -43 -16 -71 -16 -40 0
-53 5 -78 29 -26 26 -29 36 -29 91 0 55 3 65 29 91 25 24 38 29 78 29 28 0 58
-7 71 -16z m152 -33 l5 -44 33 47 c27 37 39 46 63 46 16 0 29 -4 29 -8 0 -5
-16 -27 -35 -49 -19 -23 -35 -46 -35 -53 0 -6 18 -35 40 -64 22 -29 40 -56 40
-59 0 -4 -15 -7 -34 -7 -30 0 -38 6 -67 52 l-34 53 -5 -50 c-4 -43 -8 -50 -29
-53 -13 -2 -27 1 -31 7 -9 15 -13 208 -5 222 4 5 19 9 33 7 24 -3 28 -8 32
-47z m325 24 c0 -17 -8 -20 -47 -23 -40 -3 -48 -6 -48 -23 0 -16 7 -19 45 -19
41 0 45 -2 45 -25 0 -23 -4 -25 -45 -25 -41 0 -45 -2 -45 -25 0 -23 3 -25 50
-25 47 0 50 -2 50 -25 0 -25 -1 -25 -80 -25 l-80 0 0 120 0 121 78 -3 c69 -3
77 -5 77 -23z m217 -5 c23 -29 23 -45 -2 -70 -19 -19 -19 -20 0 -62 27 -60 26
-78 -5 -78 -21 0 -29 9 -44 44 -18 41 -42 62 -55 49 -3 -4 -6 -26 -6 -50 0
-42 -1 -44 -27 -41 l-28 3 -3 119 -3 119 77 -5 c65 -4 81 -9 96 -28z m-2526
-344 c50 -50 43 -120 -16 -154 -22 -12 -30 -24 -30 -44 0 -36 14 -35 36 1 34
58 105 68 156 22 45 -40 46 -98 2 -142 -50 -50 -121 -40 -158 22 -9 16 -21 29
-27 29 -5 0 -9 -34 -9 -75 l0 -75 38 0 c45 0 67 -13 59 -34 -5 -13 -25 -16
-121 -16 -119 0 -147 10 -110 37 10 8 34 13 52 11 l32 -4 0 78 c0 43 -3 78 -7
78 -5 -1 -17 -15 -28 -33 -56 -88 -185 -50 -185 55 0 30 7 46 29 69 50 49 138
34 161 -27 13 -33 30 -30 30 4 0 20 -7 33 -25 42 -32 17 -57 72 -49 107 20 83
110 109 170 49z m2234 -97 l90 -121 -22 -32 c-74 -105 -160 -216 -168 -216
-13 0 -180 229 -180 247 0 20 166 243 180 243 6 0 51 -55 100 -121z"/>
<path d="M3761 2332 c-19 -9 -43 -28 -53 -43 -38 -52 -45 -260 -10 -320 30
-52 56 -59 229 -59 105 0 166 4 182 13 43 21 64 72 69 162 8 153 -25 231 -109
255 -18 6 -88 10 -154 10 -94 0 -127 -4 -154 -18z"/>
<path d="M1730 2266 l0 -76 200 0 c200 0 201 0 225 25 31 30 32 56 1 92 l-24
28 -201 3 -201 4 0 -76z"/>
<path d="M4780 2265 l0 -75 205 0 c192 0 206 1 225 20 23 23 26 67 6 93 -23
30 -73 37 -258 37 l-178 0 0 -75z"/>
<path d="M1497 1543 c-4 -3 -7 -19 -7 -35 0 -26 3 -29 27 -26 34 4 43 36 17
55 -20 15 -28 16 -37 6z"/>
<path d="M1711 1505 c-7 -16 -14 -36 -16 -42 -3 -9 6 -13 25 -13 17 0 30 1 30
3 0 1 -7 20 -14 42 l-14 40 -11 -30z"/>
<path d="M2109 1529 c-18 -18 -20 -30 -16 -67 7 -68 48 -91 87 -52 40 40 15
140 -35 140 -8 0 -25 -10 -36 -21z"/>
<path d="M3074 1535 c-10 -25 4 -45 31 -45 30 0 43 24 25 45 -16 19 -49 19
-56 0z"/>
<path d="M3943 1542 c-35 -22 -38 -99 -6 -134 21 -23 38 -23 63 2 51 51 0 168
-57 132z"/>
<path d="M4477 1543 c-3 -5 -5 -21 -5 -36 0 -24 4 -28 27 -25 32 4 41 36 15
55 -20 15 -31 16 -37 6z"/>
<path d="M4696 1528 c-33 -47 -8 -138 37 -138 26 0 50 38 50 80 0 69 -54 105
-87 58z"/>
<path d="M5387 1543 c-4 -3 -7 -17 -7 -30 0 -19 5 -23 29 -23 16 0 31 6 35 15
10 26 -38 58 -57 38z"/>
<path d="M1870 4391 c-33 -6 -34 -7 -10 -14 37 -10 47 -9 54 8 3 8 2 14 -2 14
-4 -1 -23 -5 -42 -8z"/>
<path d="M7184 73 c-3 -10 -10 -28 -15 -41 -12 -31 -12 -32 11 -32 17 0 20 7
20 45 0 47 -7 58 -16 28z"/>
</g>
</svg>
