<svg xmlns="http://www.w3.org/2000/svg" viewBox="0 0 1280 1024"><defs><style>.cls-1{fill:#444343;}.cls-2{fill:none;}.cls-3{fill:#bc374c;}.cls-4{fill:#13bc5f;}.cls-5{fill:#fff;}</style></defs><g id="Camada_8" data-name="Camada 8"><path class="cls-1" d="M418.21,866.1c0,7.51-5.18,12.46-12.92,12.46H392.83v17.35H391v-42.1h14.16C413,853.81,418.21,858.76,418.21,866.1Zm-2,.06c0-6.43-4.61-10.76-11.49-10.76h-11.9V877h11.9C411.61,877,416.22,872.64,416.22,866.16Z"/><path class="cls-1" d="M435.11,874.86c0-13,8.13-21.62,20.37-21.62s20.25,8.65,20.25,21.62-8.13,21.62-20.25,21.62S435.11,887.83,435.11,874.86Zm38.63,0c0-12-7.34-20-18.26-20s-18.38,8-18.38,20,7.34,20,18.38,20S473.74,886.87,473.74,874.86Z"/><path class="cls-1" d="M508.84,875.09H498.6v20.82h-1.88v-42.1h1.88V873.5h10.3l15.48-19.69h2.39l-16.16,20.54,16.55,21.56h-2.39Z"/><path class="cls-1" d="M570.35,894.32v1.59H545.6v-42.1h24.18v1.59H547.47v18.15h21.11v1.6H547.47v19.17Z"/><path class="cls-1" d="M619.85,895.91l-12.29-18.32a14.71,14.71,0,0,1-1.65.06H593.44v18.26h-1.87v-42.1h14.16c8.26,0,13.66,4.72,13.66,11.89,0,6-3.75,10.36-9.79,11.61l12.47,18.6ZM617.4,865.7c0-6.2-4.84-10.3-12-10.3H593.44V876h12.24C612.73,876,617.4,871.9,617.4,865.7Z"/><path class="cls-1" d="M673.55,853.81v42.1h-1.87V875.37H643.34v20.54h-1.88v-42.1h1.88v20h28.34v-20Z"/><path class="cls-1" d="M694.55,874.86c0-13,8.13-21.62,20.37-21.62s20.25,8.65,20.25,21.62-8.13,21.62-20.25,21.62S694.55,887.83,694.55,874.86Zm38.63,0c0-12-7.34-20-18.26-20s-18.38,8-18.38,20,7.34,20,18.38,20S733.18,886.87,733.18,874.86Z"/><path class="cls-1" d="M755.59,881.46V853.81h1.88V881.4c0,8.08,5.86,13.49,14.68,13.49s14.68-5.41,14.68-13.49V853.81h1.88v27.65c0,9-6.6,15-16.56,15S755.59,890.51,755.59,881.46Z"/><path class="cls-1" d="M809.53,891.82l1-1.48c3,3.18,7.11,4.55,11.72,4.55,7.62,0,12.69-3.64,12.69-9.16s-5.12-8.19-12.29-10.36l-3.13-1c-5.29-1.54-10.13-4-10.13-10.42s5.4-10.75,13.6-10.75c5.86,0,9.67,1.88,12.4,4.84l-1.08,1.36c-2.84-3-6.54-4.61-11.49-4.61-6.89,0-11.44,3.64-11.44,9,0,5.52,4.44,7.51,9.28,8.94l3.3,1c5.74,1.76,13,4.32,13,11.78,0,6.54-5.87,10.92-14.51,10.92C817.33,896.48,812.32,895.06,809.53,891.82Z"/><path class="cls-1" d="M882.47,894.32v1.59H857.72v-42.1H881.9v1.59H859.6v18.15h21.11v1.6H859.6v19.17Z"/><path class="cls-2" d="M299.06,619h684"/><path class="cls-3" d="M923.16,370c59.75,65.87,94.34,147.85,98.93,234.36h85.06c-5-106.67-49.67-211.71-125-293.41Z"/><path class="cls-4" d="M386.93,342c65.87-59.75,147.85-94.35,234.36-98.94V158C514.62,163,409.59,207.7,327.88,283Z"/><path class="cls-1" d="M299.17,619c1.35-87.75,37.17-171.16,101.38-235.38h0C466,318.14,551.44,282.09,641.06,282.09s175,36.05,240.49,101.51h0C945.78,447.84,981.61,531.25,983,619H1147c-2.78-270.67-234.44-501-506-501C369.9,118,138,348,135.09,619ZM621.29,243.08C534.78,247.67,452.8,282.27,386.93,342l-59.05-59C409.59,207.7,514.62,163,621.29,158ZM260,604.34H175c4.94-106.67,49.67-211.7,124.94-293.41L359,370C299.21,435.85,264.62,517.83,260,604.34Zm400.8-361.26V158C767.5,163,872.54,207.7,954.24,283l-59,59C829.32,282.27,747.35,247.67,660.83,243.08Zm361.26,361.26c-4.59-86.51-39.18-168.49-98.93-234.36l59-59.05c75.28,81.7,120,186.74,125,293.41Z"/><polygon class="cls-2" points="684.1 627.18 685.52 623.34 687.15 621.57 687 619.89 684.78 619.89 682.47 621.02 681.34 623.54 680.99 627.53 680.75 629.75 683.01 629.75 683.01 629.55 684.1 627.18"/><polygon class="cls-1" points="645.13 629.55 640.5 626.05 635.28 622.16 632.52 620.83 629.76 619.99 627.45 620.38 625.43 621.71 624.54 623.88 625.13 627.82 625.57 629.75 645.34 629.75 645.13 629.55"/><path class="cls-1" d="M681,627.53l.35-4,1.13-2.52,2.31-1.13H687l.15,1.68-1.63,1.77-1.42,3.84L683,629.55v.2H789.72l-2-3.31.89-1.62,3.44-.74,4.73-2.17,5.08-2.71,4.53-4,5.81-7.83,3.3-6.5,2.71-6.21.89-9.95.2-8.92-1.43-11-1.68-8-1.43-8.18-.88-8.52.69-5.42,1.47-6.75,3.06-6.7,4.38-6.89,1.63-4.39.34-2.16-1.43-2-2-.94V508l-1.62,1.82-2.91,4.34-1.62,1.08-4.54,5.47-1.82,2.91-2.17,4.87-2.36.4-2.17-1.28-1.28-5.81.35-6.7,1.47-6.21,3.6-5.81,7.29-10.89,4.34-8.87.54-6.2-.69-2-1.28,1.28L815,481.82l-3.3,5.46-4.88,4-5.61,5.42-8.38,9.8-1.62-.14-.54-1.68-.2-4,.54-7.44,2.56-8.32,4.53-9.26,6-7.44,7.44-6.36.69-1.47-.89-.69-3.79,2-3.1,2-5.27,4.53L792.62,474l-4.68,6.36-4.58,8.32-2.52,6.75-.74,6.7-.34,9.06,2.17,9.46,2.16,8.18,4.19,12.86L791,557.13l1.63,11.78v6.35l-.69,6.7-1.09,5.47-2,6.16-7.63,9.6-7.79,7.1-10,5.61-9.61.54-1.28-4.68L749.07,605l-4.73-6.51-3.1-3.84-4.14-5.61-8.92-8.53-9.06-7.44-4-3.1-12.51-8.47-18-15.08-9.81-12.16L664.1,516.69l-2.91-10.54.74-6.55,1.48-1.28,3.79,2.56,6,2.91,4.88-.2,5.61,2.56,6,3.64,3.1,2.52,4,2.76,4.14.54.94-1.82-1.09-.2-1.28.54-2-1.28-1.77-2.71L693.16,506l-4.93-4.53-4.87-1.82-2.71-.54.54-1.43H685l4.39,1.43,6.35,4.18,2.91,1.28,1.08-1.47-1.82-2.52L693,496.15l-7.63-4-9.21-3.6-1.83-1.47,1.83-1.28,4.13,2,7.64,1.28,8.18,3.25,4.33,2.16,7.64,1.09,5.46-.74,3.06-1.43,4.18-2.56,1.83-1.77.19-1.28-1.67.14-1.63,1.68-5.41,1.77-4.73.74-4-.54-3.85-3.06-3.44-4-4.14-3-6.21-1.28-6-2-2.56-1.63.2-1.42,2.36.34H687l5.27-.34h5.42l2.91-.55,2.36,2,3.8.94h3.1l1.43-1.08-2.52-.74-3.1-2-3.25-3.06-5.27-2.75-4.34-.55-4-.54-1.47-.89,2.9-1.62H695l3.65,1.08,3.59,1.83,5.82,2.51,5.81.19,3.1-1.47.89-2-2.37-1.09-4.87-.19-4.19-1.43-3.65-3.11-4-2-5.28-.88L689,456.05l-2-2.56.35-1.28,2.9.59,3.65,1.08,2.17,1.63,3.1.35.34-1.63-3.25-2.56-.93-2.32,4.38.69,4.14,2.17,5.27.59,2,3.79,5.42,3.26.29-.05,1.19-.5,1.42-.88-.69-1.09-2,.15L714.93,455l-3.64-5.62-6.36-5.66-6.5-2.91-1.82-2.17-4-4.73-3.65-2-.54-1.82,1.63-1.08,3.84.88,7.58,2.17,3.65,1.28,2.36,3.3,3.8,2h2.9L718,439.7l4.18-.74,1.63-1.43-2.37-2-3.44-.89-4-.54-2.37-2-3.1-4.53-.74-2.91-4-3.59-4.34-2.76-4.92-3-5.42-5.08-.35-1.48h1.24l7.09,5.62,7.24,4.19,3.84,2.9,4.88,4.54,4.38,2.36L720,429l1.28-2-1.83-.69-3.79-3.45L714.59,419l-4-4.34-3.3-2.75-1.63-4.14-5.61-8.38-7.64-6.7-.34-2.16,2.7.34,3.85,2,6.15,2.56,6.36.35,4.73,2.21,5.07.89,4.34-1.28-.35-1.82L720,394.67l-4.34-2L707,388.52,702.22,386l-2.51-3.05.89-1.08,1.28.88,2,.74,2.56.2h4.19l3.59-.39,5.47-.35,4.19,1.63,4.33,3.1,1.83.54.19-1.62-1.48-1.48-4.33-4-6.75-3.45-4.88-.54-9.26-.54L701.34,374l-4.73-4.72-5.27-3.6-2-1.82,1.62-1.28,2.51,1.08L698,366l5.12,1.83,6.9,1.62h6l4.92,5.47,4,2.36,1.43-1.47-5.42-8-8.52-6.16L705.33,360l-6-6.3-5.27-3.1-7.25-1.83,4-3.44,7.1-2.37,5.27-1.63,1.23-1.62-.69-1.28-2.91-.74-2.75-.54-20.5.39-3.64-4-4.14-2.71-5.27-2.36-6.9-1.09h-6L650,325.17l-5.62-6L637.64,313l-4.14,6.9-.19,2.16,2,2.57.2,2.16-1.43,1.28-4.58.35-8.33-2.37L613,324.28l-3.79.15L603,325.71l.74,2.17,3.45-.15,1.43.25-.05,1.92-2,.44L603.9,330l-3.94.83-3,.94-2.36.15-.74,1,.84,1.43,1.77.39,1.68-.49,1.92-.84,2-.1,4.18.2,3.21,1,3.79.93,5.57,2.51.49,1.19-.59.93-2.61.94-1.58.74-2.81,1.87-4.28,2.27-5.23,3.69-6,2.71-4.73,3.1-4.28,1.88-4,1-3.55.1-4.87.1-1.88.49-1.08,2.27-.84,2.46-.93,1.67-2.37,3.55-2.26,3.94-1.53,1.92-.15,2.22.15,3.1v3.3l2,1.83,1.77.93,2.12-.15,3.45-.93,3.89-1.18,5.27-2.12,2.12.1.49,1.33-.49,1.28-1.77.93-5.37,2-4,1.18-.79,1.33-.15,1.43,1.33,1.19,2.81.34h2.27l2.85-.1,3.11-.74,4.48-2.36,3-.59,2.52-.5,1.92.64,2.81-.14,2.75.34,2.27,1.33,3.55.35,4.63,1.43,2.51.34,3.89-.69,5,.35,2.16.83,1.19,2-.25,2.61-.59,3.21-1.18,3.69-1.68,4.63L622,414.62l-1.78,4.64-1.18,3.2-4,6.3-4.87,6.16L605.77,441l-5.56,5.56-5.13,4.34-3.25,3.45L590.11,460l-2.42,2.86L584.64,465l-3.7,3.05-5.66,3.45-4.78,2.41-3,3.5-2.17,2.81-2.17,1.33-3.05,1.53-2-.45-3.89-1.77-4.34-2.81-6.35-2.81-7.15-3.74-3.69-2.81L528.09,465l-5-4.14-5.42-2-4.77-.84-6.11,1.28-4.34,2.42-3.74,2.61-1.92,4.78-1.33,3.69-1.53,5.66L492.18,482l-1.73,5.27-.24,6.31-1.53,3.69L487,503.1,485.43,509l-2.81,5.47-1.53,5.41-.88,6.75-2.42,5.67-1.52,3.25-.2,3.25-.2,5.47v9.55l-1.08,3.94.64,3.45-.25,5.67,2,4.53,1.53,1.08,2.81-.88,2.61-2.37,3.74-4.53,3.25-5.22,1.28-4.34-.83-3.49-1.09-4.34-1.33-5.22-1.28-5.47-.69-4.14v-3.89l.89-4.38,2.17-6.7,2.16-3.5,2-1.77,1.53-2.37,2.81-.24,1.33-.84,2-1.77,2.17-1.92,2-2.61.83-3.06.7-2.61.19-3.5.64-3.05,1.53-1.92,1.53-.45,2,.64,2.81,1.53,3,3.5,3.25,4.78,3.69,4.33,4,3.5,3.49,2.81,3.45,1.52,1.09,2.17-1.09,1.09-3.69-.84-5.22-.45-6.75-1.33L515,509.84l-7.83-.24-4.58.24-3.5,2.17-3.69,3.25-3.06,5.22L490,526.4l-.25,4.33,1.33,7.83,3.06,10,1.52,7.84L497.6,564l1.33,5.37.64,5,1.72,5.67,1.33,8.67,1.28,3,3.3,2.61,3.06,3.06,3.44,5.22,2.42,6.11,3.69,5.42,5.42,5.22,3.94,2.41,2.61.2,2.17-.64,1.33-3.06,1.48-2.61.88-3.69v-8.47l-1.08-2.42c-.2,0-.2-1.52-.2-1.72l-.44-1.53-1.77-2.61-3.25-3.25-6.06-2.61-2.22-.69-.39-3.7.19-2.36-4.13-4.78-2.62-6.11-2.16-8.67-1.78-8-3-6.3-1.08-7.64,1.72-4.58,3-1.72h2.37l3.5,3,5,3.06,5.22,1.92L541.14,549l6.11,3.49v3.26l5.62,3.25,7.19,2.41h15L574,564.23l-.64,1.52,1.92,3.65,3.69,5.47,5.92,5.86,7.14,7.83,6.11,5.42,11.42,8.77,9.27,5,6.94,3.7,8.92,6.06,8.22,5.86,7.1,6,.29.4h30.45Zm106-18.82,1.28-2.32,2.32-3,2.51-3.4,2.36-3.69,2.32-3.8,1.77-3.69,1-3.79.88-4.34.2-4.83.2-4.33-.3-3.79-.44-4.39-.4-4.14-.24-2.31,1.28-1.28.84.44.64,2,1.28,4,1,4.78.74,4.58v9.26l-.1,2.32-.93,5.07L804,592.36l-1.48,3.79-2.22,4.14-2.51,3.54-3.8,4.44-4.33,4.13-2.22.55-1.18-.55-.2-1.57ZM577.2,374.43l-1.43,1.43-2,1.13-2.71.59-.93-.59-.35-1.92.79-2.71,1.92-2.66,1.58-.79,1.43.15,1.72,1.43.79,1.28Zm7.09-1.78-.49.25-1,.05-.79-.39-.64-.74.1-.89.73-1.18.6-.4h.78l.69.15.25.74.1,1.28Zm8.77,8.08-.74.35h-.93l-.54-.3-.3-.79.1-1,.54-.59.69-.05.74.2.34.54.25.88Zm16.8-25.42-1.13.3-1.38.35-1.53,1.28-3.4,2.07-4.68,1.28-2.9.73-2.81.2-1.43-.15,2.27-1.92,4.18-2,4.19-1.87,4-1.87,1.82-.89,1.38-.19,1.13.24.89,1.43ZM483,559.5l-1.48-.35-.74-1.43,1.48-.73,1.28.14.34,1.29Zm19.06-76.16-1,3.84-1.33,4.34-2.36,3.64-1.28.35-.44-1V492.6l.24-2.61.94-4.92,2.07-3.6,1.08-1.28,1.58-.44.59.88Zm10.49-14.43-2.36.89-2.27.24-1.38-.54-.34-1,.39-1.33,1.18-.84,2.47-.3,1.28-.1.88.25.79.74,0,.84Zm19.26,26-.49.05-1.18-.74-1.68-.94-1.43-1.18-1.33-1.33-.59-.74-.15-1.08.3-.54.49.05.84.14.94.84,1.08,1,1.72,1,1,1.23.64.94.05.84Zm-32.36,25.86-.89,1.23-.89.35-.59-.5,0-1.77,1.48-2.56.44-.74.74-.34.69.44v1.48l-.44,1Zm6.16,45.76-.3.45H505l-.64-.55-.49-.93-.79-1.73-1.13-2.26-1.13-3.55-.59-3.35-.1-3.89.54-3.84.3-.44h.54l.54.49.54,2.31.05,2.37.94,3,1.13,3.2.49,2.81.69,4.58Zm22,41.92.59-.14,1.42.29.65.69.14.84-.14,1-.84.64-1-.19-.74-.69-.29-1.53Zm14.23-66.35-1.48.1-1.92-.3-1.33-.59-3.1-1.92-3-2.26L527.5,535l-1.19-.89,1.58,0,1.72.64,3,.74,2.71,1.33,3.15,1.38,2.27,1,1.18,1.09.2,1Zm16.41-42.46-2.07,5.81L554.34,511l-3.2,4-1.62,1.23-1.73.64-1-.69-.1-1.28,1.38-1.48,1.43-2.36,1.82-4,1.08-3.8,1-3.74,1.92-3.6,1.28-1.82,1.08-.29,1,.39.29,1.18Zm79-115.22,1.62-2.07,1.88-1.77,1.67-1.14,1.23-.1.84.55v1.52l-.44,1.68-1.88,1.77L640,386.2l-2.27.59-1.08-.34-.15-.89Zm-6.6-38.23,1.57-.54,1.09-.49,1.38.49.44,1-1,1.18-1.43.54-1.73.1-.64-1.18ZM617,358.91l-.64-1.72.94-1.92,2.07-1.73,3.3-.15,2.41.45,1.87,1.28.94,2.21.79,2.37-.15,2.07-2.07.79h-2.22l-2.66-1.09-2.36-1.28ZM625,384.18l-2.81.64h-2.51l-.44-.84.64-.88.74-.45,4.92-3.49,3-1.88,1.82-1.13H631l.1,1.33-1.23,1-.59,2-1.53,2.36Zm-32.81,90.05-.34-.54.1-1.33.89-1,3.1-1.28,6.45-2,6.45-.79h4l3.25.69,3,1.53,2.41,2.37.15,1.32-.29.94-1,.2-1.57-.2-2.42-.69-2.26-.69-2.81-.29h-3.5l-2.95,0-2.62.24-2.9.5-2.32.64-2.26.49-1.48.1Zm40.89,133.69-3.3-2.07-5.57-3.69-8.62-5.81L612.13,594l-3.7-2.91-4-3.69-2.95-2.32-3.55-3.44-2.31-2.42L594.15,577l-.55-2.66.1-2.47.94-.93,1.62.09,2.57,1.53,2.75,2.66,2,2.47,2.17,2.16,2.12,2.61,2.66,2.91,2.51,2.81,8.28,7.19,4.58,4.09,4.09,3.69,3.3,3.11.64,1,.44.74Zm2.22-112.61-1,.59-2.51.05-1.67-.39-.94-1.23-.79-1v-1.57l1.23-1.58,1.88-1.48,1.77-.24,1.62.44.5.89.19,2,.25,2.06Zm5-81.18-1,3.79L637,424l-3.1,5.13-3.45,6.4-5.52,7.73-4.18,4.39-2.91,1.13-.94-.05-.14-.74.88-2.07,3.55-5.46,2.91-6,2.61-5.18,4.63-9,4.38-7,2.27-2.16,1.72-.3.74,1.18Zm10.1-26.3-.54,1.33-1.92,2.26-2.66,1.28-2.66,1.09-2.76,0h-1.72l-.6-.79.65-1.13,1.52-.69,2.66-1.29,3.06-1.87,1.42-1,2.17-1,1.38.35Zm14.43,83.1-1,.29-1.28-.09-.84-.84.2-.74.84-.59,1.28-.1,1.08.89,0,.74Zm1.48-4.83h-1.48l-.78-.44v-1.09l.34-.74.79-.24h1l1,.64.1.79Zm2.71-7.44-1,.49-1,.15-1.08-.24-.35-.74v-.89l.89-.64,1.08-.2h1l.64.55.15.83Zm1.38-6.25-1.33.39-1.48-.05-.79-.54,0-.59.24-.89,1.18-.54,1.28-.2,1.09.55.39,1Zm3.2-8.77-.74,1-.69.89-1.37.3h-1.38l-1.19-.6-.1-.93.84-.89.64-.74.94-.34,1.53-.45h1.18l.54.65Zm2-7.34-.64,1-1.13.2-1.18.3-1.48-.05-.64-.74.1-1.09.49-.73,1-.69,1.52-.2,1.38.29.59.84Zm2.07-5.42-1.52.64-1.19.39h-1.48l-.59-.09-.74-.25-.39-.74.2-.94,1-.88.84-.45.94-.39,1.33-.05,1.28.44.54,1Zm.2-8.42-.54.88-.94.79-1.38.49-1.62.15-1.33-.2-.35-.78.2-.64.54-.4,2.37-1.23,1.13-.25,1.38.15.54.49Zm-3.74-19.95.44-.3.2-.89.19-.69.4-.49.74-.05.88.25.79.44.1.94-.1,1.52-1.18,1L675,405l-.64-.1-.64-.25-.64-.78L673,403l.25-.49Zm-.84-6.31v-.74l.64-.64,1-.39,1.23-.05.74.24.2.64-.39.65-.64.68-1,.25H674Zm0,19.95.88-.54,1-.25,1-.1.74.05.3.45v.74l-.35.78-.69.79-1.72.74-.84-.1-.79-.24-.19-.84.14-.94Zm4.43-6.06-.25.64-1.08.74-1.48.54-.83-.19-.79-.45-.15-.79.1-1,.59-.59.84-.59,1.23-.25,1-.05.69.2.25.69Zm.39-20.84-.14.84-.55.74-.88.35-.84.19-.74.1-1-.1-.25-.59L674,390l.59-.54.64-.34,1.08-.74,1.13.05ZM676.61,382l.59.35.1.84,0,.78-.94.84-.88.35-.6-.1-.44-.25V384l.05-.83.64-.69.59-.35Zm-1.14-4.08-.24.88-.64.49-.59.35-.79.1-.64-.4-.15-.69.3-.59.59-.79.59-.29.79-.05.64.39ZM667.4,362l1.42-.1,2-.78,1.83-.4,1.52-.1.79.74L673.9,363l-1.09.3-1.82.64-2.36,1.33-2.27,1.18-2.61,1.08-.89.1-.73-.25.09-1.08-.39-1v-1.88l.84-2.12,1.18-1.28.74-1,.79-1h1.18l.84.84-.2,2.07Zm-.84-19.6.54.34-.2.54-.79.94-1.08.1-1.28-.2-.74-.34-.54-.64.64-.54.94-.4,1.42,0Zm-6.8-7.64,2.46-.24,1.33.44,1,.54,0,.89-.89.39-1.38.1-1.33-.1-1-.19-.89-.64Zm6.55,208.42-4.92-6.2-4.34-7-3.45-8.72-1.43-6,.69-3.44,2-.55,2,.94,1.28,3.6,1.09,5.27,2,5.46,5.12,8,6.9,10.15,8,10.35L675,551.72l-3.25-3.11Zm11.33,48.48-1.08,1.23-1.09,2.26-.34,1.58-.74.59-1.43-.2-.69-.83.25-3,.79-3.74.39-2.07.94-2.61.69-.79,1-.2h1.38l.59.54,1,1.53.19,2.91-.74,1.72Z"/><polygon class="cls-1" points="624.79 325.71 630.6 325.71 630.21 321.52 624.24 314.28 622.42 313.74 621.14 315.56 621.34 317.73 619.32 319.55 619.12 322.06 621.49 323.35 624.79 325.71"/><polygon class="cls-5" points="681.19 554.97 673.21 544.62 666.31 534.47 661.19 526.5 659.22 521.03 658.13 515.76 656.85 512.16 654.84 511.22 652.87 511.76 652.17 515.21 653.6 521.22 657.05 529.94 661.39 536.99 666.31 543.19 671.73 548.61 674.98 551.72 681.19 554.97"/><polygon class="cls-5" points="575.48 369.06 574.05 368.91 572.47 369.7 570.55 372.36 569.76 375.07 570.11 376.99 571.04 377.58 573.75 376.99 575.77 375.86 577.2 374.43 577.99 371.77 577.2 370.49 575.48 369.06"/><polygon class="cls-5" points="624.2 362.56 626.41 362.56 628.48 361.77 628.63 359.7 627.84 357.33 626.9 355.12 625.03 353.84 622.62 353.39 619.32 353.54 617.25 355.27 616.31 357.19 616.95 358.91 619.17 360.19 621.53 361.47 624.2 362.56"/><polygon class="cls-5" points="787.44 612.95 789.66 612.4 794 608.27 797.79 603.83 800.3 600.29 802.52 596.15 804 592.36 805.28 588.02 806.21 582.95 806.31 580.63 806.31 575.9 806.31 571.37 805.57 566.79 804.54 562.01 803.26 558.02 802.62 556 801.78 555.56 800.5 556.84 800.74 559.15 801.14 563.29 801.58 567.68 801.88 571.47 801.68 575.8 801.48 580.63 800.6 584.97 799.56 588.76 797.79 592.45 795.47 596.25 793.11 599.94 790.6 603.34 788.28 606.39 787 608.71 786.07 610.83 786.26 612.4 787.44 612.95"/><polygon class="cls-5" points="633.31 606.25 630.01 603.14 625.92 599.45 621.34 595.36 613.06 588.17 610.55 585.36 607.89 582.45 605.77 579.84 603.6 577.68 601.58 575.21 598.83 572.55 596.26 571.02 594.64 570.93 593.7 571.86 593.6 574.33 594.15 576.99 595.58 579.2 597.89 581.62 601.44 585.07 604.39 587.38 608.43 591.07 612.13 593.98 615.62 596.35 624.24 602.16 629.81 605.85 633.11 607.92 634.39 608.02 633.95 607.28 633.31 606.25"/><polygon class="cls-5" points="597 473.79 599.32 473.14 602.22 472.65 604.84 472.41 607.79 472.46 611.29 472.46 614.1 472.75 616.36 473.44 618.78 474.13 620.35 474.33 621.39 474.13 621.68 473.19 621.53 471.87 619.12 469.5 616.07 467.97 612.82 467.28 608.88 467.28 602.42 468.07 595.97 470.09 592.87 471.37 591.98 472.36 591.88 473.69 592.23 474.23 593.26 474.38 594.74 474.28 597 473.79"/><polygon class="cls-5" points="679.37 585.95 678.33 584.42 677.74 583.88 676.36 583.88 675.33 584.08 674.64 584.87 673.7 587.48 673.31 589.55 672.52 593.29 672.27 596.3 672.96 597.13 674.39 597.33 675.13 596.74 675.47 595.16 676.56 592.9 677.64 591.66 678.82 590.58 679.56 588.86 679.37 585.95"/><polygon class="cls-5" points="528.38 611.52 529.42 611.72 530.25 611.07 530.4 610.09 530.25 609.25 529.62 608.56 528.19 608.27 527.6 608.41 527.35 609.3 527.64 610.83 528.38 611.52"/><polygon class="cls-5" points="504.69 557.77 503.56 554.57 502.62 551.57 502.57 549.2 502.03 546.89 501.49 546.39 500.95 546.39 500.65 546.84 500.11 550.68 500.21 554.57 500.8 557.92 501.93 561.47 503.06 563.74 503.85 565.46 504.34 566.39 504.99 566.94 505.33 566.94 505.63 566.49 505.87 565.16 505.18 560.58 504.69 557.77"/><polygon class="cls-5" points="540.7 539.2 538.43 538.17 535.28 536.79 532.57 535.46 529.62 534.72 527.89 534.08 526.32 534.13 527.5 535.02 530.95 537.09 534 539.35 537.1 541.27 538.43 541.86 540.35 542.16 541.83 542.06 542.08 541.27 541.88 540.29 540.7 539.2"/><polygon class="cls-5" points="500.5 516.84 499.81 516.39 499.07 516.74 498.63 517.48 497.15 520.04 497.1 521.81 497.69 522.31 498.58 521.96 499.47 520.73 500.06 519.35 500.5 518.32 500.5 516.84"/><polygon class="cls-5" points="637.94 411.13 635.67 413.29 631.29 420.29 626.66 429.25 624.05 434.43 621.14 440.44 617.59 445.9 616.71 447.97 616.86 448.71 617.79 448.76 620.7 447.63 624.88 443.24 630.4 435.51 633.85 429.11 636.95 423.98 639.27 417.92 640.3 414.13 640.4 412.01 639.66 410.83 637.94 411.13"/><polygon class="cls-5" points="557.69 493.79 556.61 494.08 555.33 495.9 553.41 499.5 552.42 503.24 551.34 507.04 549.52 511.03 548.09 513.39 546.71 514.87 546.81 516.15 547.79 516.84 549.52 516.2 551.14 514.97 554.34 510.98 556.17 505.41 558.24 499.6 558.97 495.36 558.68 494.18 557.69 493.79"/><polygon class="cls-5" points="499.96 480.19 498.88 481.47 496.81 485.07 495.87 489.99 495.63 492.6 495.63 494.52 496.07 495.51 497.35 495.17 499.71 491.52 501.04 487.19 502.08 483.34 502.13 480.63 501.54 479.75 499.96 480.19"/><polygon class="cls-5" points="531.39 492.65 530.35 491.42 528.63 490.39 527.55 489.4 526.61 488.56 525.77 488.42 525.28 488.37 524.99 488.91 525.13 489.99 525.72 490.73 527.05 492.06 528.48 493.24 530.16 494.18 531.34 494.92 531.83 494.87 532.08 494.43 532.03 493.59 531.39 492.65"/><polygon class="cls-5" points="512.42 466.2 511.54 465.95 510.26 466.05 507.79 466.35 506.61 467.19 506.22 468.51 506.56 469.5 507.94 470.04 510.21 469.8 512.57 468.91 513.26 467.78 513.21 466.94 512.42 466.2"/><polygon class="cls-5" points="635.38 489.8 634.88 488.91 633.26 488.46 631.49 488.71 629.61 490.19 628.38 491.76 628.38 493.34 629.17 494.33 630.11 495.56 631.78 495.95 634.29 495.9 635.33 495.31 635.82 493.83 635.57 491.76 635.38 489.8"/><polygon class="cls-5" points="608.43 352.61 607.05 352.8 605.23 353.69 601.24 355.56 597.05 357.43 592.87 359.45 590.6 361.37 592.03 361.52 594.84 361.32 597.74 360.58 602.42 359.31 605.82 357.24 607.35 355.95 608.73 355.61 609.86 355.31 610.45 354.28 609.56 352.85 608.43 352.61"/><polygon class="cls-5" points="584.29 369.5 583.6 369.35 582.82 369.35 582.23 369.75 581.49 370.93 581.39 371.82 582.03 372.56 582.82 372.95 583.8 372.9 584.29 372.65 584.64 371.52 584.54 370.24 584.29 369.5"/><polygon class="cls-5" points="592.62 378.57 591.88 378.37 591.19 378.42 590.65 379.01 590.55 379.99 590.85 380.78 591.39 381.08 592.32 381.08 593.06 380.73 593.21 379.99 592.96 379.11 592.62 378.57"/><polygon class="cls-5" points="629.32 380.49 629.91 378.47 631.14 377.48 631.04 376.15 630.4 376.15 628.58 377.29 625.57 379.16 620.65 382.65 619.91 383.1 619.27 383.98 619.71 384.82 622.23 384.82 625.03 384.18 627.79 382.85 629.32 380.49"/><polygon class="cls-5" points="637.69 386.79 639.96 386.2 642.17 384.82 644.05 383.05 644.49 381.37 644.49 379.85 643.65 379.3 642.42 379.4 640.75 380.54 638.87 382.31 637.25 384.38 636.46 385.56 636.61 386.45 637.69 386.79"/><polygon class="cls-5" points="646.86 387.04 645.43 388.07 642.37 389.94 639.71 391.23 638.18 391.92 637.54 393.05 638.14 393.84 639.86 393.84 642.62 393.79 645.28 392.7 647.94 391.42 649.86 389.16 650.4 387.83 650.4 386.35 649.02 386 646.86 387.04"/><polygon class="cls-5" points="632.67 348.32 634.1 347.78 635.13 346.6 634.69 345.61 633.31 345.12 632.22 345.61 630.65 346.15 630.3 347.24 630.94 348.42 632.67 348.32"/><polygon class="cls-5" points="661.04 336.79 662.37 336.89 663.75 336.79 664.64 336.4 664.59 335.51 663.55 334.97 662.22 334.53 659.76 334.77 659.12 335.95 660.01 336.6 661.04 336.79"/><polygon class="cls-5" points="663.11 342.61 662.47 343.15 663.01 343.79 663.75 344.13 665.03 344.33 666.12 344.23 666.9 343.3 667.1 342.75 666.56 342.41 665.48 342.16 664.05 342.21 663.11 342.61"/><polygon class="cls-5" points="666.56 358.02 665.38 358.02 664.59 359.01 663.85 359.99 662.67 361.27 661.83 363.39 661.83 365.26 662.22 366.3 662.13 367.38 662.86 367.63 663.75 367.53 666.36 366.45 668.63 365.26 670.99 363.94 672.82 363.3 673.9 363 674.98 361.37 674.19 360.63 672.67 360.73 670.84 361.13 668.83 361.92 667.4 362.01 667.2 360.93 667.4 358.86 666.56 358.02"/><polygon class="cls-5" points="664.05 468.86 662.76 468.96 661.93 469.55 661.73 470.29 662.57 471.13 663.85 471.23 664.83 470.93 665.18 470.49 665.13 469.75 664.05 468.86"/><polygon class="cls-5" points="666.21 463.59 665.18 463.59 664.39 463.83 664.05 464.57 664.05 465.66 664.83 466.1 666.31 466.1 667.3 465.02 667.2 464.23 666.21 463.59"/><polygon class="cls-5" points="668.58 456.59 667.54 456.59 666.46 456.79 665.57 457.43 665.57 458.32 665.92 459.06 667 459.3 668.04 459.15 669.02 458.66 669.37 457.97 669.22 457.14 668.58 456.59"/><polygon class="cls-5" points="669.46 449.99 668.18 450.19 667 450.73 666.76 451.62 666.8 452.21 667.59 452.75 669.07 452.8 670.4 452.41 670.94 451.57 670.55 450.54 669.46 449.99"/><polygon class="cls-5" points="672.08 441.87 670.55 442.31 669.61 442.65 668.97 443.39 668.13 444.28 668.23 445.21 669.42 445.81 670.79 445.81 672.17 445.51 672.86 444.62 673.6 443.64 673.8 442.5 673.26 441.87 672.08 441.87"/><polygon class="cls-5" points="673.6 434.33 672.08 434.52 671.09 435.21 670.6 435.95 670.5 437.04 671.14 437.78 672.62 437.83 673.8 437.53 674.93 437.33 675.57 436.3 675.57 435.46 674.98 434.62 673.6 434.33"/><polygon class="cls-5" points="676.02 428.12 674.69 428.17 673.75 428.56 672.91 429.01 671.93 429.89 671.73 430.83 672.13 431.57 672.86 431.81 673.46 431.91 674.93 431.91 676.12 431.52 677.64 430.88 677.84 429.6 677.3 428.56 676.02 428.12"/><polygon class="cls-5" points="482.28 556.99 480.8 557.73 481.54 559.15 483.01 559.5 483.9 558.41 483.56 557.13 482.28 556.99"/><polygon class="cls-5" points="675.92 421.27 674.78 421.52 672.42 422.75 671.88 423.15 671.68 423.79 672.03 424.57 673.36 424.77 674.98 424.62 676.36 424.13 677.3 423.34 677.84 422.46 677.84 421.92 677.3 421.42 675.92 421.27"/><polygon class="cls-5" points="672.72 417.63 672.91 418.47 673.7 418.71 674.54 418.81 676.26 418.07 676.95 417.28 677.3 416.5 677.3 415.76 677 415.31 676.26 415.26 675.23 415.36 674.19 415.61 673.31 416.15 672.86 416.69 672.72 417.63"/><polygon class="cls-5" points="676.95 408.12 675.92 408.17 674.69 408.42 673.85 409.01 673.26 409.6 673.16 410.58 673.31 411.37 674.1 411.82 674.93 412.01 676.41 411.47 677.5 410.73 677.74 410.09 677.89 409.01 677.64 408.32 676.95 408.12"/><polygon class="cls-5" points="676.07 396.59 676.71 395.9 677.1 395.26 676.9 394.62 676.16 394.38 674.93 394.43 673.9 394.82 673.26 395.46 673.26 396.2 673.95 396.84 675.03 396.84 676.07 396.59"/><polygon class="cls-5" points="673.01 403 673.11 403.88 673.75 404.67 674.39 404.92 675.03 405.02 676.56 404.28 677.74 403.25 677.84 401.72 677.74 400.78 676.95 400.34 676.07 400.09 675.33 400.14 674.93 400.63 674.74 401.32 674.54 402.21 674.1 402.51 673.26 402.51 673.01 403"/><polygon class="cls-5" points="675.23 389.11 674.59 389.45 674 389.99 673.75 390.78 674 391.37 674.98 391.47 675.72 391.37 676.56 391.18 677.44 390.83 677.99 390.09 678.13 389.25 677.44 388.42 676.31 388.37 675.23 389.11"/><polygon class="cls-5" points="674.44 383.2 674.39 384.03 674.39 384.82 674.84 385.07 675.42 385.17 676.31 384.82 677.25 383.98 677.3 383.2 677.2 382.36 676.61 382.01 675.67 382.16 675.08 382.51 674.44 383.2"/><polygon class="cls-5" points="673.9 376.99 673.31 377.29 672.72 378.07 672.42 378.66 672.57 379.35 673.21 379.75 674 379.65 674.59 379.3 675.23 378.81 675.47 377.93 675.33 377.33 674.69 376.94 673.9 376.99"/><path class="cls-2" d="M641.23,280c188.88,0,335.88,160.38,342,358"/><path class="cls-3" d="M907.64,525.58a210.5,210.5,0,0,0,14.45,19.36q9.9,12,16,18.11-4.87,4.65-16,18a190.89,190.89,0,0,0-14.38,19.49,72.72,72.72,0,0,0-4.88-7.24q-5.36-7.17-13.26-16.67-1.71-2.1-12.07-13.62,6.66-6.87,17.15-19.6A162.87,162.87,0,0,0,907.64,525.58Z"/><path class="cls-1" d="M373.94,526.3a36.13,36.13,0,0,0,5.28,11.54q3.55,5.07,12.7,12.57t11.57,11.51a15.38,15.38,0,0,1,2.44,8.12,12.38,12.38,0,0,1-4.22,9.56,14.8,14.8,0,0,1-10.29,3.82,16,16,0,0,1-9.33-2.9,25.51,25.51,0,0,1-7.42-8.46q.06,8.81,2.54,14a18,18,0,0,0,7.91,8.13q5.44,3,14.48,3.49l.46,2.22h-52.3l.52-2.22q12.14,0,18.83-6.42t6.43-19.16a21.76,21.76,0,0,1-7.35,8.52,17.9,17.9,0,0,1-9.93,2.84,14.56,14.56,0,0,1-10.18-3.88,12.14,12.14,0,0,1-4.26-9.32,14.72,14.72,0,0,1,2.17-7.89q3-4.91,9.64-9.86a88.56,88.56,0,0,0,9.82-8.19,45.94,45.94,0,0,0,7-8.84A34.2,34.2,0,0,0,373.94,526.3Z"/><path class="cls-3" d="M484.47,431.58a53.39,53.39,0,0,0-5.83-13.24q-3.79-6.18-14.68-19.21-8-9.57-9.83-12.13a34.48,34.48,0,0,1-4.38-7.68,19.31,19.31,0,0,1-1.36-7.08,14.45,14.45,0,0,1,4.89-11.11,17.16,17.16,0,0,1,12.07-4.49,18.53,18.53,0,0,1,12.59,4.67c2.68,2.3,4.87,5.75,6.53,10.33a22.82,22.82,0,0,1,6.14-10.27,18.68,18.68,0,0,1,12.66-4.79A17.44,17.44,0,0,1,515.35,361a13.84,13.84,0,0,1,4.94,10.61,25.21,25.21,0,0,1-2.89,11.21q-2.91,5.82-11.22,15.25-10.81,12.39-15.77,20.32A54.67,54.67,0,0,0,484.47,431.58Z"/><path class="cls-1" d="M840.65,430.86H784.72l.53-2q10.88-2.08,14.44-4.12a23.49,23.49,0,0,0,8.75-9,25.15,25.15,0,0,0,3.39-12.61c0-.63,0-1.55-.06-2.74q-4,7.41-9.8,10.82a22.94,22.94,0,0,1-11.78,3.4,18.72,18.72,0,0,1-13-4.83,15.43,15.43,0,0,1-5.34-11.9,15.64,15.64,0,0,1,4.88-11.68,15.45,15.45,0,0,1,11.08-4.74c2.65,0,6.22,1,10.76,3a37.44,37.44,0,0,1-3.6-6.3,12.54,12.54,0,0,1-.82-4.58,15,15,0,0,1,5.2-11.53,18.69,18.69,0,0,1,13-4.72A19,19,0,0,1,825.45,362a14.54,14.54,0,0,1,5.31,11.23q0,5.33-4.55,11.18c3.69-1.59,5.92-2.49,6.66-2.7A16.57,16.57,0,0,1,848.34,386a16.32,16.32,0,0,1-.46,23.66,18.2,18.2,0,0,1-12.76,4.87,22.21,22.21,0,0,1-8.54-1.82,24.72,24.72,0,0,1-7.63-4.87,44.47,44.47,0,0,1-5.73-7.47q.27,9.49,3.2,15a23.6,23.6,0,0,0,9,9.17q4.08,2.44,14.71,4.3Z"/><path class="cls-1" d="M132.46,831.79V805.11q13.8,11,26.72,11a24.84,24.84,0,0,0,16.42-5.67q6.81-5.67,6.81-13.68,0-6.88-3.84-16.71t-20.7-36.29Q141,717.29,136,703.65t-5.06-24q0-20.24,13.71-33.06t35-12.83A71.18,71.18,0,0,1,205.29,639v24.33q-12.57-6.15-21.48-6.15-23.24,0-23.23,19.06,0,7,3.93,16.93t20.78,36.07q16.86,26.16,21.84,39.88t5,24.26q0,20.54-13.71,33.35t-35.54,12.83A64.13,64.13,0,0,1,132.46,831.79Z"/><path class="cls-1" d="M333.67,801.15v27.12q-17.3,11.29-36.51,11.29-30.74,0-47.5-26.39t-16.77-75.36q0-49,16.85-76.53t48.12-27.56q15,0,33,10.41v26.09q-15.37-12.45-30.74-12.46-18.51,0-26.81,18.22T265,736.64q0,42,8.38,60.44t27.77,18.44Q314.45,815.52,333.67,801.15Z"/><path class="cls-1" d="M361.61,836.92V636.36h30.57v88.26h45.76V636.36H468.5V836.92H437.94V748.66H392.18v88.26Z"/><path class="cls-1" d="M509.72,836.92V636.36h30.74V836.92Z"/><path class="cls-1" d="M563,836.92l45.06-201.74h32l44.71,201.74H655l-8.56-44.42H602.12l-9.44,44.42Zm43.67-68.46h34.41l-16.77-84h-.88Z"/><path class="cls-1" d="M729.14,839.56,684.9,636.36h32.32l22.61,135.17,22.28-135.17h32.13L750,839.56Z"/><path class="cls-1" d="M865,839.56q-28.31,0-46.11-27.49t-17.82-75.43q0-45.3,16.86-74.11T865,633.72q29.34,0,46.72,28.74t17.38,74.18q0,48.39-18.34,75.65T865,839.56Zm-.35-181.8q-15.2,0-23.32,21t-8.12,57.88q0,38.21,8.38,58.54t23.76,20.34q14.67,0,23.14-20.78t8.47-58.1q0-37.9-8.56-58.39T864.63,657.76Z"/><path class="cls-1" d="M962.26,836.92V636.36h25l52.92,124,.7-.27V636.36h28.29V836.92h-25L991.25,712l-.69,0V836.92Z"/><path class="cls-1" d="M1110.37,836.92V636.36h30.74V836.92Z"/><rect class="cls-2" width="1280" height="1024"/></g></svg>