<?xml version="1.0" standalone="no"?>
<!DOCTYPE svg PUBLIC "-//W3C//DTD SVG 20010904//EN"
 "http://www.w3.org/TR/2001/REC-SVG-20010904/DTD/svg10.dtd">
<svg version="1.0" xmlns="http://www.w3.org/2000/svg"
 width="718.000000pt" height="717.000000pt" viewBox="0 0 718.000000 717.000000"
 preserveAspectRatio="xMidYMid meet">

<g transform="translate(0.000000,717.000000) scale(0.100000,-0.100000)"
fill="#000000" stroke="none">
<path d="M3315 6644 c-378 -43 -692 -131 -1005 -280 -828 -395 -1438 -1145
-1648 -2029 -54 -226 -85 -494 -80 -690 l3 -120 465 0 465 0 7 159 c9 199 49
408 120 624 118 356 305 627 630 913 238 210 503 343 848 428 207 51 251 56
495 56 245 0 306 -7 515 -62 322 -85 602 -227 810 -412 41 -36 90 -79 109 -96
61 -54 245 -270 303 -356 202 -300 331 -707 346 -1089 l7 -165 465 0 465 0 3
150 c6 322 -67 709 -200 1053 -98 254 -278 565 -459 792 -109 137 -336 364
-473 473 -334 266 -711 456 -1108 561 -359 94 -757 127 -1083 90z m200 -464
l0 -285 -95 -7 c-250 -19 -525 -91 -764 -202 -87 -41 -96 -43 -109 -28 -24 27
-267 456 -267 470 0 16 194 110 338 163 249 93 466 140 782 173 19 2 53 3 75
2 l40 -1 0 -285z m1722 -222 c270 -186 544 -463 734 -745 27 -40 49 -76 49
-80 0 -5 -84 -58 -187 -117 -104 -60 -209 -122 -234 -137 -25 -16 -52 -29 -60
-29 -8 0 -30 24 -49 53 -145 215 -419 485 -639 628 l-25 15 140 242 c76 133
145 241 152 242 8 0 61 -33 119 -72z m-3885 -1134 c135 -77 238 -142 238 -150
0 -8 -13 -40 -29 -72 -106 -209 -185 -496 -212 -764 l-12 -118 -283 0 -284 0
0 58 c0 279 107 708 256 1034 54 119 70 148 82 148 3 0 113 -61 244 -136z"/>
<path d="M3485 5513 c-317 -26 -503 -80 -775 -225 -90 -48 -272 -170 -312
-210 -42 -42 -9 -127 57 -144 33 -8 64 7 170 86 198 148 477 259 743 296 725
102 1426 -259 1761 -906 118 -229 179 -463 190 -735 l6 -150 79 -3 c48 -2 83
1 90 8 25 25 -1 381 -39 540 -19 82 -59 210 -73 235 -6 11 -38 76 -70 145 -51
107 -132 238 -216 354 -12 16 -64 74 -116 129 -235 247 -577 446 -925 537
-128 34 -421 56 -570 43z"/>
<path d="M3501 5227 c-9 -12 -10 -21 -1 -37 11 -20 10 -21 -23 -15 -27 5 -40
2 -54 -12 -18 -18 -18 -18 21 -33 22 -8 39 -19 39 -25 0 -17 -161 -106 -205
-113 -36 -6 -46 -14 -70 -54 -38 -61 -32 -93 16 -85 17 3 39 8 49 12 12 5 17
2 17 -9 0 -8 -11 -18 -25 -22 -44 -11 -29 -27 18 -19 79 14 229 1 248 -22 27
-32 -39 -176 -124 -270 -35 -37 -71 -81 -80 -96 -10 -15 -43 -44 -73 -63 -29
-19 -54 -38 -54 -43 0 -4 -11 -13 -24 -19 -20 -9 -34 -5 -92 25 -38 20 -89 51
-113 70 -82 62 -143 38 -179 -70 -12 -35 -22 -70 -22 -79 0 -8 -9 -41 -20 -74
-47 -136 -60 -195 -60 -279 0 -96 10 -107 54 -54 30 36 31 38 11 123 -22 93
-1 162 56 191 30 16 43 36 53 88 4 16 13 27 23 27 17 0 144 -130 138 -140 -2
-4 -26 -3 -52 1 -91 15 -151 11 -163 -10 -5 -11 -7 -21 -2 -24 4 -2 1 -2 -5
-1 -32 8 -43 -75 -19 -143 8 -22 23 -86 35 -142 15 -75 28 -111 46 -133 14
-17 34 -47 45 -67 24 -47 64 -84 86 -79 26 5 39 53 25 98 -8 26 -22 45 -46 59
-19 11 -35 27 -35 35 0 8 -9 30 -19 48 -11 18 -30 72 -42 121 -21 81 -22 88
-7 103 15 15 24 13 113 -30 53 -26 98 -53 101 -61 7 -18 77 -45 118 -45 29 0
34 -4 39 -27 7 -33 126 -157 183 -191 22 -13 74 -45 116 -71 l77 -48 428 -1
c488 -2 466 -6 520 85 36 62 45 143 27 243 -21 116 -18 177 12 234 14 26 24
50 21 52 -5 6 -73 -68 -79 -86 -2 -8 -11 -11 -21 -7 -13 5 -17 18 -17 52 0 37
9 61 45 121 25 40 45 78 45 83 0 6 -28 -21 -62 -59 -35 -37 -70 -67 -78 -66
-25 3 -15 79 18 141 33 61 30 70 -10 28 -74 -79 -90 -163 -53 -288 41 -137 56
-244 45 -312 -6 -32 -10 -59 -10 -61 0 -10 -99 -106 -122 -118 -45 -23 -87
-18 -98 12 -26 67 -138 184 -247 257 -79 54 -162 138 -208 212 -47 75 -67 146
-46 159 11 7 83 -14 133 -40 41 -21 50 -8 13 21 -35 28 -30 40 11 25 l29 -10
-25 19 c-14 11 -37 26 -52 32 -16 6 -28 16 -28 21 0 11 49 2 99 -18 18 -8 41
-14 50 -14 25 1 -45 60 -79 67 -16 3 -34 11 -40 18 -8 10 0 15 39 20 27 4 60
4 73 0 l23 -6 -24 20 c-13 12 -31 21 -42 21 -10 0 -21 5 -24 10 -11 18 22 21
60 6 21 -9 44 -16 53 -16 22 0 -53 48 -90 58 -48 12 -45 29 7 36 32 5 54 3 75
-8 l30 -15 -20 30 c-12 16 -26 29 -31 29 -13 0 -89 70 -89 82 0 16 70 -1 98
-23 14 -10 39 -19 56 -18 l31 1 -32 14 c-18 7 -39 27 -48 44 -8 16 -28 36 -43
44 -29 15 -58 44 -51 50 2 2 33 -16 69 -39 35 -24 67 -42 69 -39 3 2 -5 17
-17 32 -12 15 -34 45 -49 67 -14 21 -35 47 -47 56 -33 27 -13 32 56 15 87 -22
91 -20 34 12 -71 39 -70 52 1 52 53 1 56 2 39 15 -11 8 -34 15 -50 15 -21 0
-45 12 -71 34 -48 41 -41 55 15 32 22 -9 49 -16 61 -16 11 0 32 -8 47 -17 l27
-17 -29 32 c-16 17 -39 35 -50 38 -12 4 -33 17 -48 30 -16 12 -37 25 -48 29
-31 10 -24 32 15 46 52 19 42 29 -30 29 -52 0 -71 5 -101 25 -21 14 -51 25
-70 25 -25 0 -45 10 -74 37 -43 38 -56 36 -62 -7 -2 -14 -11 -26 -21 -28 -15
-3 -18 1 -13 16 4 12 -1 28 -12 42 -16 19 -19 20 -31 7z m-66 -207 c8 -13 -51
-42 -78 -38 -19 3 -16 7 18 25 46 25 52 27 60 13z m86 0 c25 -14 25 -50 1 -50
-10 0 -27 6 -37 14 -16 12 -17 16 -6 30 16 19 17 19 42 6z m253 -36 c22 -9 20
-19 -8 -32 -27 -12 -48 1 -39 24 6 15 22 18 47 8z m-519 -70 c0 -12 -8 -20
-22 -22 -25 -4 -31 16 -11 36 17 17 33 10 33 -14z m291 -40 c-3 -9 -6 -18 -6
-20 0 -2 -9 -4 -20 -4 -25 0 -26 16 -2 29 25 15 35 13 28 -5z m84 -9 c0 -16
-27 -32 -37 -21 -7 7 16 36 28 36 5 0 9 -7 9 -15z m30 -40 c0 -9 -10 -19 -22
-24 -40 -15 -54 8 -15 27 31 15 37 14 37 -3z m160 -75 c0 -5 -7 -10 -15 -10
-8 0 -15 5 -15 10 0 6 7 10 15 10 8 0 15 -4 15 -10z m-10 -40 c0 -5 -4 -10
-10 -10 -5 0 -10 5 -10 10 0 6 5 10 10 10 6 0 10 -4 10 -10z m-204 -46 c-9
-33 -70 -136 -95 -158 -12 -11 -24 -16 -28 -12 -8 8 57 140 89 181 23 29 42
23 34 -11z m204 -23 c0 -6 -4 -13 -10 -16 -5 -3 -10 1 -10 9 0 9 5 16 10 16 6
0 10 -4 10 -9z m-6 -63 c-8 -27 -12 -33 -19 -27 -7 8 7 49 17 49 5 0 6 -10 2
-22z m-19 -58 c3 -5 1 -10 -4 -10 -6 0 -11 5 -11 10 0 6 2 10 4 10 3 0 8 -4
11 -10z m-895 -141 c0 -5 -7 -9 -15 -9 -15 0 -20 12 -9 23 8 8 24 -1 24 -14z
m591 1 c10 -6 19 -16 19 -23 0 -13 -153 -17 -166 -4 -10 10 56 36 94 37 18 0
42 -5 53 -10z m-651 -91 c0 -28 -19 -61 -31 -54 -8 6 -3 47 8 68 8 15 23 6 23
-14z m753 -31 c6 -19 -3 -38 -18 -38 -18 0 -28 17 -21 35 7 18 33 20 39 3z
m-588 -8 c3 -5 -1 -10 -9 -10 -8 0 -18 5 -21 10 -3 6 1 10 9 10 8 0 18 -4 21
-10z m155 -37 c-1 -31 -39 -105 -52 -100 -16 5 -15 9 11 70 20 47 41 62 41 30z
m567 -122 c6 -23 33 -71 58 -107 25 -37 44 -71 42 -77 -6 -20 -87 65 -117 125
-30 61 -36 88 -23 102 14 13 28 -2 40 -43z m-672 -104 c28 -21 0 -32 -30 -13
-14 9 -25 19 -25 21 0 10 37 4 55 -8z m-196 -106 c7 -21 8 -38 2 -44 -15 -15
-36 37 -32 83 2 20 16 1 30 -39z m1681 -27 c13 -34 13 -118 -2 -165 -13 -44
-72 -119 -94 -119 -22 0 -17 12 28 79 41 61 42 65 42 147 1 86 9 104 26 58z
m-1056 -154 c50 -49 86 -90 80 -90 -33 0 -214 146 -214 173 0 44 23 30 134
-83z m356 12 c0 -23 -35 -57 -44 -43 -10 15 12 61 29 61 8 0 15 -8 15 -18z"/>
<path d="M2650 4880 c-34 -34 -25 -68 46 -167 37 -51 69 -93 73 -93 3 0 20 21
36 47 107 163 111 177 75 213 -26 26 -53 25 -87 -4 l-28 -24 -28 24 c-35 29
-61 30 -87 4z"/>
<path d="M4430 4872 c-14 -11 -23 -30 -24 -52 -1 -31 -5 -35 -31 -38 -43 -5
-55 -19 -55 -63 0 -63 61 -90 113 -49 30 24 50 25 66 6 20 -24 69 -30 96 -12
51 34 36 111 -22 118 -23 2 -29 9 -31 33 -4 37 -38 75 -68 75 -12 0 -32 -8
-44 -18z"/>
<path d="M2177 4854 c-18 -6 -127 -153 -197 -269 -47 -77 -148 -293 -173 -370
-53 -162 -87 -386 -87 -572 0 -130 -4 -126 110 -121 l65 3 2 65 c16 452 123
770 364 1086 44 58 52 115 22 153 -18 22 -72 34 -106 25z"/>
<path d="M4455 4640 c-3 -11 -18 -29 -32 -40 l-26 -20 73 0 72 0 -31 29 c-17
16 -31 34 -31 40 0 19 -18 12 -25 -9z"/>
<path d="M2320 3959 c0 -6 -25 -36 -55 -68 -57 -59 -71 -101 -43 -129 15 -15
64 -16 73 -2 3 6 19 10 35 10 16 0 32 -4 35 -10 9 -15 61 -12 75 5 26 31 14
64 -44 125 -31 32 -56 63 -56 69 0 6 -4 11 -10 11 -5 0 -10 -5 -10 -11z"/>
<path d="M4944 3927 c-16 -23 -40 -56 -53 -73 l-23 -31 53 -69 c28 -38 55 -70
59 -72 7 -3 110 133 110 145 0 3 -15 24 -33 47 -18 23 -41 53 -50 69 -10 15
-21 27 -25 27 -4 -1 -21 -20 -38 -43z"/>
<path d="M2320 3736 c0 -7 -14 -28 -32 -45 l-32 -31 80 0 79 0 -33 21 c-17 12
-35 32 -38 45 -7 26 -24 33 -24 10z"/>
<path d="M5790 3460 c-7 -4 -9 -231 -8 -726 l3 -719 40 0 40 0 5 570 c4 475 7
566 18 545 7 -14 95 -270 195 -570 l182 -545 48 -3 47 -3 -2 728 -3 728 -33 3
c-65 6 -62 36 -62 -582 -1 -398 -4 -556 -11 -543 -6 10 -93 264 -193 565
l-183 547 -36 6 c-20 3 -41 3 -47 -1z"/>
<path d="M6576 3458 c-6 -17 -14 -1420 -8 -1436 2 -7 22 -12 48 -12 l44 0 -2
728 -3 727 -38 3 c-24 2 -39 -1 -41 -10z"/>
<path d="M784 3444 c-81 -25 -156 -91 -196 -171 -29 -59 -33 -79 -36 -160 -3
-81 -1 -98 21 -146 48 -106 123 -168 332 -276 198 -101 254 -164 263 -294 6
-81 -14 -140 -67 -206 -96 -117 -284 -121 -389 -7 -51 56 -68 88 -81 159 -14
74 -15 77 -57 77 -44 0 -49 -13 -35 -96 29 -165 149 -293 292 -313 226 -31
413 111 435 330 18 179 -67 295 -304 414 -169 85 -267 169 -301 259 -68 182
46 356 234 356 78 0 130 -24 183 -85 39 -44 51 -72 67 -147 5 -26 9 -28 50
-28 41 0 45 2 45 23 0 39 -35 134 -65 177 -38 55 -90 99 -144 123 -61 27 -178
32 -247 11z"/>
<path d="M1660 3440 c-40 -13 -67 -32 -102 -69 -58 -63 -87 -138 -99 -256 -11
-121 -11 -647 1 -762 23 -215 116 -323 293 -340 122 -11 223 28 286 112 31 41
71 148 71 191 0 21 -4 24 -40 24 -44 0 -41 4 -75 -93 -22 -63 -55 -100 -110
-126 -120 -56 -255 2 -303 131 -33 89 -42 193 -42 503 0 302 9 394 45 481 36
86 110 134 205 134 109 0 176 -54 216 -172 l21 -63 43 -3 43 -3 -6 51 c-14
116 -91 225 -183 260 -72 26 -188 27 -264 0z"/>
<path d="M2282 2738 l3 -723 35 0 35 0 5 360 5 360 248 3 c194 2 247 0 247
-10 0 -7 0 -166 0 -353 0 -187 4 -346 9 -353 5 -8 22 -12 42 -10 l34 3 3 723
2 723 -42 -3 -43 -3 -3 -313 -2 -312 -248 2 -247 3 -3 313 -2 312 -40 0 -40 0
2 -722z"/>
<path d="M3152 2738 l3 -723 40 0 40 0 3 723 2 722 -45 0 -45 0 2 -722z"/>
<path d="M3700 3455 c0 -3 -63 -321 -140 -705 -77 -385 -140 -709 -140 -720 0
-17 7 -20 39 -20 29 0 41 5 45 18 2 9 23 116 46 237 57 303 90 459 99 468 4 4
52 6 106 5 l99 -3 71 -360 71 -360 33 -3 c19 -2 38 1 43 6 5 5 -11 105 -41
253 -64 317 -90 444 -170 849 l-67 335 -47 3 c-26 2 -47 0 -47 -3z m60 -208
c0 -2 16 -89 35 -193 19 -104 35 -197 35 -206 0 -16 -10 -18 -79 -18 -44 0
-82 4 -85 9 -3 4 10 89 29 187 45 229 44 224 55 224 6 0 10 -1 10 -3z"/>
<path d="M4100 3443 c0 -18 53 -289 115 -593 19 -91 64 -313 100 -493 36 -181
68 -333 71 -338 3 -5 23 -9 44 -9 28 0 40 5 44 18 6 20 286 1415 286 1425 0 4
-20 7 -44 7 l-43 0 -53 -272 c-29 -150 -61 -316 -71 -368 -11 -52 -30 -153
-44 -225 -46 -240 -70 -346 -80 -348 -8 -2 -53 222 -240 1181 -5 30 -9 32 -45
32 -31 0 -40 -4 -40 -17z"/>
<path d="M5127 3442 c-96 -34 -156 -106 -190 -227 -17 -61 -20 -112 -24 -415
-7 -446 7 -559 82 -672 87 -132 341 -155 472 -43 52 45 99 147 112 248 14 97
14 705 1 806 -20 154 -100 268 -212 304 -69 21 -178 21 -241 -1z m219 -88 c52
-25 102 -90 126 -164 20 -60 22 -91 26 -384 5 -379 -4 -482 -49 -573 -44 -92
-110 -133 -208 -133 -61 1 -120 29 -159 76 -72 87 -85 194 -79 622 5 335 9
380 50 457 20 41 65 85 102 101 43 19 150 17 191 -2z"/>
<path d="M2370 1803 c-30 -11 -60 -48 -71 -85 -33 -123 118 -213 207 -124 37
38 46 119 17 163 -27 41 -103 64 -153 46z m100 -19 c65 -39 77 -109 29 -167
-27 -33 -36 -37 -75 -37 -56 0 -79 12 -99 50 -52 100 51 209 145 154z"/>
<path d="M4043 1794 c-37 -19 -63 -67 -63 -118 0 -45 47 -102 97 -115 61 -17
133 29 150 97 8 34 -12 94 -41 121 -32 30 -100 37 -143 15z m107 -7 c68 -34
82 -121 30 -177 -24 -26 -35 -30 -78 -30 -45 0 -53 4 -81 35 -45 52 -43 95 8
146 42 42 75 49 121 26z"/>
<path d="M4795 1791 c17 -10 32 -16 35 -14 8 7 -32 33 -49 33 -9 0 -3 -8 14
-19z"/>
<path d="M2020 1683 c0 -80 3 -113 10 -103 5 8 10 31 10 51 0 19 5 40 11 46 8
8 8 13 0 17 -6 4 -11 27 -11 52 l0 45 36 -3 c21 -2 41 -10 47 -19 15 -23 0
-68 -26 -79 -13 -5 -16 -9 -7 -9 29 -2 60 29 60 58 0 40 -28 61 -83 61 l-47 0
0 -117z"/>
<path d="M2758 1748 l-47 -52 37 -44 c20 -24 45 -54 54 -66 9 -11 20 -18 24
-14 3 4 -14 30 -40 59 -25 28 -46 58 -46 67 0 9 19 36 42 59 23 24 38 43 33
43 -6 -1 -31 -24 -57 -52z"/>
<path d="M3030 1685 l0 -114 33 -5 c50 -7 77 -6 77 4 0 5 -21 10 -47 12 l-48
3 -3 48 c-2 36 1 49 13 53 14 6 14 8 0 24 -10 11 -15 30 -13 47 3 26 7 28 53
34 l50 6 -57 1 -58 2 0 -115z"/>
<path d="M3372 1683 c1 -86 3 -103 7 -64 3 30 11 56 17 58 7 2 29 -20 50 -49
21 -29 39 -55 41 -57 2 -2 5 -2 8 1 3 3 -10 25 -28 49 -19 24 -32 50 -30 57 3
7 -4 12 -15 12 -28 0 -44 24 -40 61 2 26 9 35 28 40 23 6 22 7 -7 8 l-33 1 2
-117z"/>
<path d="M3465 1775 c28 -27 31 -45 13 -64 -11 -11 -10 -13 2 -9 19 6 25 64 9
84 -6 8 -20 14 -30 14 -16 0 -15 -3 6 -25z"/>
<path d="M4352 1717 c-2 -92 11 -138 43 -151 37 -14 86 -6 110 19 23 23 25 30
23 122 l-2 98 -6 -90 c-3 -49 -10 -98 -14 -107 -18 -39 -109 -43 -133 -6 -4 7
-11 56 -14 108 l-5 95 -2 -88z"/>
<path d="M4721 1786 c-7 -8 -11 -27 -9 -43 2 -22 13 -33 47 -50 24 -12 52 -30
62 -39 11 -9 19 -13 19 -8 0 19 -17 33 -58 49 -54 22 -69 47 -47 81 17 26 5
34 -14 10z"/>
<path d="M5052 1683 l3 -118 44 -3 c67 -5 87 11 21 18 -52 5 -55 7 -58 34 -2
15 -1 39 2 52 6 21 13 24 54 26 47 1 47 1 7 5 -52 6 -67 19 -63 57 3 29 6 31
53 37 l50 6 -58 1 -58 2 3 -117z"/>
<path d="M2682 1770 c0 -14 2 -19 5 -12 2 6 2 18 0 25 -3 6 -5 1 -5 -13z"/>
<path d="M3684 1685 c0 -60 1 -87 3 -60 2 29 10 55 19 61 13 10 13 12 0 17 -9
4 -16 23 -19 49 -2 24 -3 -6 -3 -67z"/>
<path d="M3827 1706 c-16 -13 -16 -14 3 -19 22 -6 38 10 24 23 -5 5 -17 3 -27
-4z"/>
<path d="M2680 1683 c0 -22 2 -25 10 -13 13 20 13 40 0 40 -5 0 -10 -12 -10
-27z"/>
<path d="M3758 1693 c7 -3 16 -2 19 1 4 3 -2 6 -13 5 -11 0 -14 -3 -6 -6z"/>
<path d="M4822 1605 c-15 -34 -61 -37 -94 -8 -10 9 -18 12 -18 6 0 -18 36 -43
63 -43 29 0 67 31 67 55 0 21 -5 19 -18 -10z"/>
<path d="M0 20 c0 -20 7 -20 3590 -20 3583 0 3590 0 3590 20 0 20 -7 20 -3590
20 -3583 0 -3590 0 -3590 -20z"/>
</g>
</svg>
